<svg width="301" height="94" viewBox="0 0 301 94" fill="none" xmlns="http://www.w3.org/2000/svg">
<circle cx="23.5" cy="23.5" r="23.5" fill="#F07A41"/>
<circle cx="23.5" cy="70.5" r="23.5" fill="#FFA67A"/>
<path d="M52 5C52 2.23858 54.2386 0 57 0H95.6364C98.0463 0 100 1.95367 100 4.36364C100 28.4633 80.4633 48 56.3636 48H52V5Z" fill="#5458FB"/>
<path d="M57 94C54.2386 94 52 91.7614 52 89L52 48L56.6038 48C80.5709 48 100 67.4292 100 91.3962C100 92.8342 98.8343 94 97.3962 94L57 94Z" fill="#57D180"/>
<path fill-rule="evenodd" clip-rule="evenodd" d="M171.109 77.2434H159.872L147.494 59.3289L142.364 64.459V77.2434H133V20.2427H142.364V52.8145L158.487 36.5286H170.295L154.09 52.7331L171.109 77.2434ZM186.578 77.2434H177.214V36.5286H186.578V77.2434ZM220.688 77.2434L235.182 36.5286H225.573L214.418 69.5076L203.262 36.5286H193.409L207.903 77.2434H220.688ZM251.388 77.2434H242.023V36.5286H251.388V77.2434ZM280.286 78.0577C292.012 78.0577 300.318 69.2633 300.318 56.886C300.318 44.5087 292.012 35.7143 280.286 35.7143C268.641 35.7143 260.336 44.5087 260.336 56.886C260.336 69.2633 268.641 78.0577 280.286 78.0577ZM280.693 70.4033H279.96C273.934 70.4033 269.7 65.4361 269.7 56.886C269.7 48.3359 273.934 43.3687 279.96 43.3687H280.693C286.719 43.3687 290.872 48.3359 290.872 56.886C290.872 65.4361 286.719 70.4033 280.693 70.4033ZM186.806 26.5065C186.806 29.274 184.563 31.5175 181.795 31.5175C179.028 31.5175 176.784 29.274 176.784 26.5065C176.784 23.7389 179.028 21.4954 181.795 21.4954C184.563 21.4954 186.806 23.7389 186.806 26.5065ZM246.313 31.5175C249.08 31.5175 251.324 29.274 251.324 26.5065C251.324 23.7389 249.08 21.4954 246.313 21.4954C243.545 21.4954 241.302 23.7389 241.302 26.5065C241.302 29.274 243.545 31.5175 246.313 31.5175Z" fill="black"/>
</svg>
