<svg width="180" height="170" viewBox="0 0 180 170" fill="none" xmlns="http://www.w3.org/2000/svg">
<g clip-path="url(#clip0)">
<path d="M42.2996 85C18.938 85 -0.000394828 104.028 -0.00039279 127.5C-0.000390751 150.972 18.938 170 42.2996 170C65.6613 170 84.5996 150.972 84.5996 127.5C84.5996 104.028 65.6612 85 42.2996 85Z" fill="#FFA67A"/>
<path d="M42.2996 3.72282e-06C18.938 5.77887e-06 -0.000394828 19.0279 -0.00039279 42.5C-0.000390751 65.9721 18.938 85 42.2996 85C65.6613 85 84.5996 65.9721 84.5996 42.5C84.5996 19.0279 65.6612 1.66676e-06 42.2996 3.72282e-06Z" fill="#F07A41"/>
<path d="M93.5996 9.04255C93.5996 4.0485 97.6291 0 102.6 0H172.145C176.483 0 180 3.53323 180 7.89169C180 51.4762 144.834 86.8085 101.454 86.8085H93.5996V9.04255Z" fill="#5458FB"/>
<path d="M102.6 170C97.6291 170 93.5996 165.951 93.5996 160.957V86.8085H101.886C145.027 86.8085 180 121.946 180 165.291C180 167.892 177.901 170 175.313 170H102.6Z" fill="#57D180"/>
</g>
<defs>
<clipPath id="clip0">
<rect width="180" height="170" fill="white"/>
</clipPath>
</defs>
</svg>
